# xmcd
#
# Track frame offsets: 
#        150
#        21047
#        45007
#        63912
#        82352
#        104925
#        123265
#        144937
#        164782
#        181117
#        197930
#        218010
#        245120
#        261245
#        280102
#        297627
#        315430
#
# Disc length: 4578 seconds
#
# Revision: 22
# Processed by: cddbd v1.5.2PL0 Copyright (c) Steve Scherf et al.
# Submitted via: ExactAudioCopy v1.3
#
DISCID=0511e011
DTITLE=Billy Joel - Greatest Hits Volume III
DYEAR=1997
DGENRE=Rock
TTITLE0=Keeping The Faith
TTITLE1=An Innocent Man
TTITLE2=A Matter Of Trust
TTITLE3=Baby Grand (duet with Ray Charles)
TTITLE4=This Is The Time
TTITLE5=Leningrad
TTITLE6=We Didn't Start The Fire
TTITLE7=I Go To Extremes
TTITLE8=And So It Goes
TTITLE9=The Downeaster "Alexa"
TTITLE10=Shameless
TTITLE11=All About Soul (Remix)
TTITLE12=Lullabye (Goodnight, My Angel)
TTITLE13=The River Of Dreams
TTITLE14=To Make You Feel My Love
TTITLE15=Hey Girl
TTITLE16=Light As The Breeze
EXTD=YEAR: 1997
EXTT0=
EXTT1=
EXTT2=
EXTT3=
EXTT4=
EXTT5=
EXTT6=
EXTT7=
EXTT8=
EXTT9=
EXTT10=
EXTT11=
EXTT12=
EXTT13=
EXTT14=
EXTT15=
EXTT16=
PLAYORDER=
